<svg width="20" height="20" viewBox="0 0 20 20" fill="none" xmlns="http://www.w3.org/2000/svg">
<path d="M14.1661 7.64162C14.01 7.48641 13.7987 7.39929 13.5786 7.39929C13.3584 7.39929 13.1472 7.48641 12.9911 7.64162L9.99943 10.5916L7.04943 7.64162C6.89329 7.48641 6.68208 7.39929 6.46193 7.39929C6.24177 7.39929 6.03056 7.48641 5.87443 7.64162C5.79632 7.71909 5.73433 7.81126 5.69202 7.91281C5.64971 8.01435 5.62793 8.12328 5.62793 8.23329C5.62793 8.3433 5.64971 8.45222 5.69202 8.55377C5.73433 8.65532 5.79632 8.74748 5.87443 8.82495L9.40776 12.3583C9.48523 12.4364 9.5774 12.4984 9.67895 12.5407C9.7805 12.583 9.88942 12.6048 9.99943 12.6048C10.1094 12.6048 10.2184 12.583 10.3199 12.5407C10.4215 12.4984 10.5136 12.4364 10.5911 12.3583L14.1661 8.82495C14.2442 8.74748 14.3062 8.65532 14.3485 8.55377C14.3908 8.45222 14.4126 8.3433 14.4126 8.23329C14.4126 8.12328 14.3908 8.01435 14.3485 7.91281C14.3062 7.81126 14.2442 7.71909 14.1661 7.64162Z" fill="#52786A"/>
</svg>
