<svg width="20" height="21" viewBox="0 0 20 21" fill="none" xmlns="http://www.w3.org/2000/svg">
<path d="M12.3574 9.90874L8.8241 6.3754C8.74663 6.2973 8.65446 6.2353 8.55291 6.193C8.45136 6.15069 8.34244 6.12891 8.23243 6.12891C8.12242 6.12891 8.0135 6.15069 7.91195 6.193C7.8104 6.2353 7.71823 6.2973 7.64076 6.3754C7.48556 6.53154 7.39844 6.74275 7.39844 6.9629C7.39844 7.18306 7.48556 7.39427 7.64076 7.5504L10.5908 10.5004L7.64076 13.4504C7.48556 13.6065 7.39844 13.8178 7.39844 14.0379C7.39844 14.2581 7.48556 14.4693 7.64076 14.6254C7.71863 14.7026 7.81098 14.7637 7.91251 14.8052C8.01404 14.8467 8.12276 14.8677 8.23243 14.8671C8.3421 14.8677 8.45082 14.8467 8.55235 14.8052C8.65388 14.7637 8.74623 14.7026 8.8241 14.6254L12.3574 11.0921C12.4355 11.0146 12.4975 10.9224 12.5398 10.8209C12.5821 10.7193 12.6039 10.6104 12.6039 10.5004C12.6039 10.3904 12.5821 10.2815 12.5398 10.1799C12.4975 10.0784 12.4355 9.98621 12.3574 9.90874Z" fill="white"/>
</svg>
