<svg width="20" height="20" viewBox="0 0 20 20" fill="none" xmlns="http://www.w3.org/2000/svg">
<path d="M15.0007 10.9846V8.33464C14.9995 7.1539 14.5804 6.01169 13.8178 5.11028C13.0552 4.20887 11.9982 3.60642 10.834 3.40964V2.5013C10.834 2.28029 10.7462 2.06833 10.5899 1.91205C10.4336 1.75577 10.2217 1.66797 10.0007 1.66797C9.77964 1.66797 9.56768 1.75577 9.4114 1.91205C9.25512 2.06833 9.16732 2.28029 9.16732 2.5013V3.40964C8.0031 3.60642 6.94609 4.20887 6.18347 5.11028C5.42086 6.01169 5.00185 7.1539 5.00065 8.33464V10.9846C4.51436 11.1566 4.09315 11.4747 3.79477 11.8954C3.49638 12.3161 3.33543 12.8188 3.33398 13.3346V15.0013C3.33398 15.2223 3.42178 15.4343 3.57806 15.5906C3.73434 15.7468 3.9463 15.8346 4.16732 15.8346H6.78398C6.97589 16.5408 7.39482 17.1642 7.97615 17.6086C8.55748 18.053 9.2689 18.2938 10.0007 18.2938C10.7324 18.2938 11.4438 18.053 12.0252 17.6086C12.6065 17.1642 13.0254 16.5408 13.2173 15.8346H15.834C16.055 15.8346 16.267 15.7468 16.4232 15.5906C16.5795 15.4343 16.6673 15.2223 16.6673 15.0013V13.3346C16.6659 12.8188 16.5049 12.3161 16.2065 11.8954C15.9082 11.4747 15.4869 11.1566 15.0007 10.9846ZM6.66732 8.33464C6.66732 7.45058 7.01851 6.60273 7.64363 5.97761C8.26875 5.35249 9.1166 5.0013 10.0007 5.0013C10.8847 5.0013 11.7326 5.35249 12.3577 5.97761C12.9828 6.60273 13.334 7.45058 13.334 8.33464V10.8346H6.66732V8.33464ZM10.0007 16.668C9.70979 16.6662 9.42446 16.5884 9.17301 16.4422C8.92156 16.296 8.71274 16.0865 8.56732 15.8346H11.434C11.2886 16.0865 11.0797 16.296 10.8283 16.4422C10.5768 16.5884 10.2915 16.6662 10.0007 16.668ZM15.0007 14.168H5.00065V13.3346C5.00065 13.1136 5.08845 12.9017 5.24473 12.7454C5.40101 12.5891 5.61297 12.5013 5.83398 12.5013H14.1673C14.3883 12.5013 14.6003 12.5891 14.7566 12.7454C14.9129 12.9017 15.0007 13.1136 15.0007 13.3346V14.168Z" fill="#52786A"/>
</svg>
