<svg width="20" height="20" viewBox="0 0 20 20" fill="none" xmlns="http://www.w3.org/2000/svg">
<path d="M15.8327 5.41799H14.766L14.4993 4.58465C14.3265 4.09568 14.0058 3.67257 13.5818 3.37395C13.1577 3.07534 12.6513 2.91599 12.1327 2.91799H7.86602C7.34231 2.91897 6.83213 3.08439 6.40749 3.39091C5.98285 3.69743 5.66519 4.12956 5.49935 4.62632L5.23268 5.45965H4.16602C3.50297 5.45965 2.86709 5.72305 2.39825 6.19189C1.92941 6.66073 1.66602 7.29661 1.66602 7.95965V14.6263C1.66602 15.2894 1.92941 15.9252 2.39825 16.3941C2.86709 16.8629 3.50297 17.1263 4.16602 17.1263H15.8327C16.4957 17.1263 17.1316 16.8629 17.6004 16.3941C18.0693 15.9252 18.3327 15.2894 18.3327 14.6263V7.95965C18.3382 7.62786 18.2776 7.29828 18.1545 6.99015C18.0313 6.68201 17.848 6.40147 17.6153 6.16489C17.3826 5.92831 17.1052 5.74043 16.7991 5.61219C16.4931 5.48396 16.1645 5.41794 15.8327 5.41799ZM16.666 14.5847C16.666 14.8057 16.5782 15.0176 16.4219 15.1739C16.2657 15.3302 16.0537 15.418 15.8327 15.418H4.16602C3.945 15.418 3.73304 15.3302 3.57676 15.1739C3.42048 15.0176 3.33268 14.8057 3.33268 14.5847V7.91799C3.33268 7.69697 3.42048 7.48501 3.57676 7.32873C3.73304 7.17245 3.945 7.08465 4.16602 7.08465H5.83268C6.0144 7.09414 6.19424 7.04388 6.34471 6.94156C6.49519 6.83924 6.60803 6.69047 6.66602 6.51799L7.11602 5.15132C7.17192 4.9858 7.27843 4.84204 7.42049 4.74036C7.56255 4.63867 7.73298 4.5842 7.90768 4.58465H12.1743C12.3491 4.5842 12.5195 4.63867 12.6615 4.74036C12.8036 4.84204 12.9101 4.9858 12.966 5.15132L13.416 6.51799C13.4695 6.67694 13.5697 6.81606 13.7035 6.91716C13.8373 7.01826 13.9985 7.07664 14.166 7.08465H15.8327C16.0537 7.08465 16.2657 7.17245 16.4219 7.32873C16.5782 7.48501 16.666 7.69697 16.666 7.91799V14.5847ZM9.99935 7.08465C9.34008 7.08465 8.69561 7.28015 8.14745 7.64642C7.59928 8.01269 7.17204 8.53329 6.91975 9.14238C6.66746 9.75146 6.60145 10.4217 6.73006 11.0683C6.85868 11.7149 7.17615 12.3088 7.64233 12.775C8.1085 13.2412 8.70244 13.5587 9.34905 13.6873C9.99565 13.8159 10.6659 13.7499 11.275 13.4976C11.884 13.2453 12.4046 12.8181 12.7709 12.2699C13.1372 11.7217 13.3327 11.0773 13.3327 10.418C13.3327 9.53393 12.9815 8.68609 12.3564 8.06096C11.7313 7.43584 10.8834 7.08465 9.99935 7.08465V7.08465ZM9.99935 12.0847C9.66971 12.0847 9.34748 11.9869 9.0734 11.8038C8.79932 11.6206 8.5857 11.3603 8.45955 11.0558C8.3334 10.7512 8.3004 10.4161 8.36471 10.0928C8.42902 9.76954 8.58775 9.47256 8.82084 9.23948C9.05393 9.00639 9.3509 8.84765 9.6742 8.78335C9.9975 8.71904 10.3326 8.75204 10.6372 8.87819C10.9417 9.00433 11.202 9.21796 11.3851 9.49204C11.5683 9.76612 11.666 10.0884 11.666 10.418C11.666 10.86 11.4904 11.2839 11.1779 11.5965C10.8653 11.9091 10.4414 12.0847 9.99935 12.0847Z" fill="#D9C4AC"/>
</svg>
