<svg width="20" height="20" viewBox="0 0 20 20" fill="none" xmlns="http://www.w3.org/2000/svg">
<path d="M12.268 7.32484L8.69297 10.9082L7.31797 9.53317C7.24327 9.44594 7.15133 9.37509 7.04795 9.32507C6.94456 9.27505 6.83195 9.24694 6.71718 9.24251C6.60242 9.23807 6.48797 9.25741 6.38104 9.29931C6.2741 9.3412 6.17698 9.40475 6.09576 9.48596C6.01455 9.56717 5.951 9.6643 5.90911 9.77124C5.86721 9.87817 5.84787 9.99262 5.85231 10.1074C5.85674 10.2221 5.88485 10.3348 5.93487 10.4381C5.98489 10.5415 6.05574 10.6335 6.14297 10.7082L8.10131 12.6748C8.17917 12.7521 8.27152 12.8132 8.37305 12.8546C8.47458 12.8961 8.5833 12.9171 8.69297 12.9165C8.91159 12.9156 9.12109 12.8288 9.27631 12.6748L13.443 8.50817C13.5211 8.4307 13.5831 8.33853 13.6254 8.23698C13.6677 8.13544 13.6895 8.02651 13.6895 7.9165C13.6895 7.80649 13.6677 7.69757 13.6254 7.59602C13.5831 7.49447 13.5211 7.40231 13.443 7.32484C13.2868 7.16963 13.0756 7.08251 12.8555 7.08251C12.6353 7.08251 12.4241 7.16963 12.268 7.32484ZM10.0013 1.6665C8.35313 1.6665 6.74196 2.15525 5.37155 3.07092C4.00114 3.9866 2.93304 5.28809 2.30231 6.81081C1.67158 8.33353 1.50655 10.0091 1.8281 11.6256C2.14964 13.2421 2.94331 14.727 4.10875 15.8924C5.27419 17.0578 6.75905 17.8515 8.37555 18.173C9.99206 18.4946 11.6676 18.3296 13.1903 17.6988C14.7131 17.0681 16.0145 16 16.9302 14.6296C17.8459 13.2592 18.3346 11.648 18.3346 9.99984C18.3346 8.90549 18.1191 7.82186 17.7003 6.81081C17.2815 5.79976 16.6677 4.8811 15.8939 4.10728C15.12 3.33346 14.2014 2.71963 13.1903 2.30084C12.1793 1.88205 11.0957 1.6665 10.0013 1.6665ZM10.0013 16.6665C8.68276 16.6665 7.39383 16.2755 6.2975 15.543C5.20118 14.8104 4.34669 13.7692 3.84211 12.5511C3.33752 11.3329 3.2055 9.99244 3.46274 8.69924C3.71997 7.40603 4.35491 6.21814 5.28726 5.28579C6.21961 4.35344 7.4075 3.7185 8.7007 3.46127C9.99391 3.20403 11.3344 3.33606 12.5525 3.84064C13.7707 4.34522 14.8119 5.19971 15.5444 6.29604C16.277 7.39236 16.668 8.6813 16.668 9.99984C16.668 11.7679 15.9656 13.4636 14.7154 14.7139C13.4651 15.9641 11.7694 16.6665 10.0013 16.6665Z" fill="#6DC5A5"/>
</svg>
