<svg width="20" height="20" viewBox="0 0 20 20" fill="none" xmlns="http://www.w3.org/2000/svg">
<path d="M15.5917 6.00846C15.5142 5.93035 15.4221 5.86836 15.3205 5.82605C15.219 5.78374 15.11 5.76196 15 5.76196C14.89 5.76196 14.7811 5.78374 14.6796 5.82605C14.578 5.86836 14.4858 5.93035 14.4084 6.00846L8.20004 12.2251L5.59171 9.60846C5.51127 9.53076 5.41632 9.46967 5.31227 9.42866C5.20823 9.38766 5.09713 9.36755 4.98531 9.36949C4.87349 9.37142 4.76315 9.39536 4.66058 9.43994C4.55802 9.48452 4.46524 9.54886 4.38754 9.6293C4.30984 9.70973 4.24875 9.80468 4.20774 9.90873C4.16674 10.0128 4.14663 10.1239 4.14856 10.2357C4.1505 10.3475 4.17444 10.4579 4.21902 10.5604C4.2636 10.663 4.32794 10.7558 4.40837 10.8335L7.60837 14.0335C7.68584 14.1116 7.77801 14.1736 7.87956 14.2159C7.98111 14.2582 8.09003 14.28 8.20004 14.28C8.31005 14.28 8.41897 14.2582 8.52052 14.2159C8.62207 14.1736 8.71424 14.1116 8.79171 14.0335L15.5917 7.23346C15.6763 7.15543 15.7438 7.06072 15.79 6.9553C15.8361 6.84988 15.86 6.73605 15.86 6.62096C15.86 6.50588 15.8361 6.39204 15.79 6.28662C15.7438 6.18121 15.6763 6.0865 15.5917 6.00846Z" fill="#52786A"/>
</svg>
