<svg width="36" height="36" viewBox="0 0 36 36" fill="none" xmlns="http://www.w3.org/2000/svg">
<rect width="36" height="36" rx="10" fill="#F3F6FA"/>
<path d="M21.0924 18.5912C21.9094 17.9484 22.5057 17.067 22.7984 16.0695C23.0911 15.072 23.0657 14.0081 22.7256 13.0258C22.3854 12.0434 21.7476 11.1915 20.9008 10.5886C20.054 9.98563 19.0403 9.66162 18.0007 9.66162C16.9612 9.66162 15.9475 9.98563 15.1007 10.5886C14.2539 11.1915 13.616 12.0434 13.2759 13.0258C12.9358 14.0081 12.9103 15.072 13.203 16.0695C13.4957 17.067 14.0921 17.9484 14.9091 18.5912C13.5091 19.1521 12.2876 20.0823 11.3748 21.2828C10.462 22.4833 9.89203 23.909 9.72573 25.4079C9.71369 25.5173 9.72333 25.628 9.75408 25.7337C9.78484 25.8395 9.83612 25.9381 9.90499 26.024C10.0441 26.1974 10.2464 26.3086 10.4674 26.3329C10.6884 26.3572 10.91 26.2927 11.0835 26.1536C11.257 26.0145 11.3681 25.8122 11.3924 25.5912C11.5754 23.9622 12.3521 22.4577 13.5742 21.3652C14.7964 20.2727 16.3781 19.6687 18.0174 19.6687C19.6566 19.6687 21.2384 20.2727 22.4605 21.3652C23.6827 22.4577 24.4594 23.9622 24.6424 25.5912C24.6651 25.796 24.7628 25.9851 24.9167 26.122C25.0705 26.259 25.2697 26.3341 25.4757 26.3329H25.5674C25.7858 26.3077 25.9855 26.1973 26.1229 26.0256C26.2602 25.8539 26.3242 25.6348 26.3007 25.4162C26.1336 23.913 25.5606 22.4837 24.6431 21.2814C23.7256 20.0791 22.4982 19.1491 21.0924 18.5912ZM18.0007 17.9995C17.3415 17.9995 16.697 17.804 16.1488 17.4378C15.6007 17.0715 15.1734 16.5509 14.9211 15.9418C14.6688 15.3327 14.6028 14.6625 14.7314 14.0159C14.8601 13.3693 15.1775 12.7754 15.6437 12.3092C16.1099 11.843 16.7038 11.5255 17.3504 11.3969C17.997 11.2683 18.6673 11.3343 19.2763 11.5866C19.8854 11.8389 20.406 12.2661 20.7723 12.8143C21.1386 13.3625 21.3341 14.0069 21.3341 14.6662C21.3341 15.5503 20.9829 16.3981 20.3578 17.0232C19.7326 17.6483 18.8848 17.9995 18.0007 17.9995Z" fill="#173B5E" fill-opacity="0.4"/>
</svg>
