<svg width="18" height="18" viewBox="0 0 18 18" fill="none" xmlns="http://www.w3.org/2000/svg">
<path d="M17.3347 5.03465C17.3353 4.92498 17.3143 4.81626 17.2728 4.71473C17.2313 4.6132 17.1702 4.52085 17.093 4.44298L13.5596 0.909649C13.4818 0.832415 13.3894 0.77131 13.2879 0.72984C13.1864 0.688369 13.0777 0.667349 12.968 0.667983C12.8583 0.667349 12.7496 0.688369 12.6481 0.72984C12.5465 0.77131 12.4542 0.832415 12.3763 0.909649L10.018 3.26798L0.909649 12.3763C0.832415 12.4542 0.77131 12.5465 0.72984 12.6481C0.688369 12.7496 0.667349 12.8583 0.667983 12.968V16.5013C0.667983 16.7223 0.75578 16.9343 0.91206 17.0906C1.06834 17.2469 1.2803 17.3347 1.50132 17.3347H5.03465C5.15126 17.341 5.26789 17.3228 5.377 17.2811C5.4861 17.2395 5.58524 17.1754 5.66798 17.093L14.7263 7.98465L17.093 5.66798C17.169 5.58722 17.231 5.49426 17.2763 5.39298C17.2843 5.32656 17.2843 5.25941 17.2763 5.19298C17.2802 5.15419 17.2802 5.11511 17.2763 5.07632L17.3347 5.03465ZM4.69298 15.668H2.33465V13.3097L10.6096 5.03465L12.968 7.39298L4.69298 15.668ZM14.143 6.21798L11.7846 3.85965L12.968 2.68465L15.318 5.03465L14.143 6.21798Z" fill="#143352" fill-opacity="0.65"/>
</svg>
