<svg width="20" height="21" viewBox="0 0 20 21" fill="none" xmlns="http://www.w3.org/2000/svg">
<path d="M13.9743 4.97467C14.1657 5.08332 14.3922 5.11187 14.6046 5.05411C14.8169 4.99634 14.9977 4.85695 15.1077 4.66634C15.1811 4.53917 15.2868 4.43366 15.4141 4.36049C15.5415 4.28732 15.6858 4.24909 15.8327 4.24967C16.0537 4.24967 16.2657 4.33747 16.4219 4.49375C16.5782 4.65003 16.666 4.86199 16.666 5.08301C16.666 5.30402 16.5782 5.51598 16.4219 5.67226C16.2657 5.82854 16.0537 5.91634 15.8327 5.91634C15.6117 5.91634 15.3997 6.00414 15.2434 6.16042C15.0871 6.3167 14.9993 6.52866 14.9993 6.74967C14.9993 6.97069 15.0871 7.18265 15.2434 7.33893C15.3997 7.49521 15.6117 7.58301 15.8327 7.58301C16.2715 7.58273 16.7024 7.46697 17.0823 7.24737C17.4622 7.02777 17.7775 6.71206 17.9967 6.33197C18.2159 5.95187 18.3313 5.52078 18.3311 5.08201C18.3309 4.64323 18.2153 4.21223 17.9957 3.83231C17.7762 3.4524 17.4606 3.13694 17.0806 2.91764C16.7005 2.69835 16.2695 2.58294 15.8307 2.58301C15.3919 2.58308 14.9609 2.69863 14.5809 2.91804C14.2009 3.13746 13.8854 3.45302 13.666 3.83301C13.6109 3.92812 13.5752 4.03319 13.5609 4.14217C13.5465 4.25116 13.5539 4.36189 13.5826 4.46801C13.6112 4.57413 13.6606 4.67353 13.7278 4.76048C13.7951 4.84744 13.8789 4.92023 13.9743 4.97467ZM17.4993 11.7497C17.2783 11.7497 17.0664 11.8375 16.9101 11.9938C16.7538 12.15 16.666 12.362 16.666 12.583V15.9163C16.666 16.1374 16.5782 16.3493 16.4219 16.5056C16.2657 16.6619 16.0537 16.7497 15.8327 16.7497H4.16602C3.945 16.7497 3.73304 16.6619 3.57676 16.5056C3.42048 16.3493 3.33268 16.1374 3.33268 15.9163V7.92467L8.23268 12.833C8.70143 13.3012 9.33685 13.5641 9.99935 13.5641C10.6619 13.5641 11.2973 13.3012 11.766 12.833L13.1327 11.4663C13.2104 11.3886 13.272 11.2964 13.3141 11.1949C13.3561 11.0934 13.3778 10.9846 13.3778 10.8747C13.3778 10.7648 13.3561 10.656 13.3141 10.5545C13.272 10.4529 13.2104 10.3607 13.1327 10.283C13.055 10.2053 12.9627 10.1437 12.8612 10.1016C12.7597 10.0596 12.6509 10.0379 12.541 10.0379C12.4311 10.0379 12.3223 10.0596 12.2208 10.1016C12.1193 10.1437 12.027 10.2053 11.9493 10.283L10.5827 11.6497C10.4269 11.8024 10.2175 11.8879 9.99935 11.8879C9.78122 11.8879 9.57179 11.8024 9.41602 11.6497L4.50768 6.74967H10.8327C11.0537 6.74967 11.2657 6.66188 11.4219 6.5056C11.5782 6.34932 11.666 6.13735 11.666 5.91634C11.666 5.69533 11.5782 5.48337 11.4219 5.32709C11.2657 5.1708 11.0537 5.08301 10.8327 5.08301H4.16602C3.50297 5.08301 2.86709 5.3464 2.39825 5.81524C1.92941 6.28408 1.66602 6.91997 1.66602 7.58301V15.9163C1.66602 16.5794 1.92941 17.2153 2.39825 17.6841C2.86709 18.1529 3.50297 18.4163 4.16602 18.4163H15.8327C16.4957 18.4163 17.1316 18.1529 17.6004 17.6841C18.0693 17.2153 18.3327 16.5794 18.3327 15.9163V12.583C18.3327 12.362 18.2449 12.15 18.0886 11.9938C17.9323 11.8375 17.7204 11.7497 17.4993 11.7497ZM15.241 8.65801C15.1629 8.73548 15.1009 8.82764 15.0586 8.92919C15.0163 9.03074 14.9945 9.13966 14.9945 9.24967C14.9945 9.35968 15.0163 9.46861 15.0586 9.57015C15.1009 9.6717 15.1629 9.76387 15.241 9.84134L15.366 9.94134C15.4125 9.97288 15.4629 9.9981 15.516 10.0163C15.5633 10.0404 15.6138 10.0572 15.666 10.0663H15.8327C15.9982 10.0673 16.1603 10.019 16.2982 9.92745C16.4361 9.83595 16.5437 9.70544 16.6072 9.55257C16.6706 9.3997 16.6871 9.2314 16.6546 9.06911C16.622 8.90682 16.5419 8.7579 16.4243 8.64134C16.3458 8.56431 16.2527 8.50361 16.1506 8.46273C16.0485 8.42184 15.9392 8.40159 15.8292 8.40314C15.7192 8.40469 15.6106 8.42801 15.5096 8.47175C15.4087 8.5155 15.3174 8.5788 15.241 8.65801Z" fill="#52786A"/>
</svg>
