<svg width="18" height="18" viewBox="0 0 18 18" fill="none" xmlns="http://www.w3.org/2000/svg">
<path fill-rule="evenodd" clip-rule="evenodd" d="M8.99935 0.667969C13.6018 0.667969 17.3327 4.3988 17.3327 9.0013C17.3327 12.5846 15.071 15.6396 11.8977 16.8163C11.844 16.8458 11.7873 16.8692 11.7285 16.8863L11.6494 16.9046C10.7951 17.1904 9.90013 17.3356 8.99935 17.3346C4.39685 17.3346 0.666016 13.6038 0.666016 9.0013C0.666016 4.3988 4.39685 0.667969 8.99935 0.667969ZM11.4243 2.78964L11.2777 3.5238C11.1832 3.99632 10.9541 4.43144 10.618 4.77681C10.282 5.12217 9.85327 5.36306 9.38352 5.47047L9.04935 5.54714C8.84207 5.59439 8.66069 5.71908 8.54234 5.89569C8.42398 6.07229 8.3776 6.28745 8.41268 6.49714L8.55852 7.37047C8.60498 7.6504 8.5792 7.93757 8.48361 8.20475C8.38803 8.47193 8.22582 8.71028 8.01234 8.89723C7.79885 9.08417 7.54118 9.21351 7.26372 9.27299C6.98626 9.33248 6.6982 9.32014 6.42685 9.23714L5.35185 8.9088C4.83981 8.75228 4.39155 8.4355 4.07306 8.00509C3.75457 7.57469 3.58267 7.0534 3.58268 6.51797V5.1138C2.79375 6.21229 2.35758 7.52474 2.33206 8.87693C2.30654 10.2291 2.69288 11.5571 3.43979 12.6846C4.18671 13.812 5.25887 14.6857 6.51395 15.1895C7.76904 15.6933 9.14767 15.8035 10.4668 15.5055L9.98352 13.8121C9.94442 13.676 9.87129 13.5521 9.77102 13.4521L8.73935 12.4196C8.61501 12.2954 8.51827 12.1463 8.45547 11.9821C8.39267 11.8179 8.36521 11.6423 8.37488 11.4667C8.38455 11.2912 8.43114 11.1197 8.51161 10.9634C8.59207 10.8071 8.7046 10.6695 8.84185 10.5596L10.146 9.51714C10.3946 9.31824 10.695 9.19472 11.0117 9.16119C11.3283 9.12767 11.6479 9.18554 11.9327 9.32797L13.1577 9.94047C13.5258 10.1245 13.8427 10.3966 14.0804 10.7326C14.3181 11.0685 14.4691 11.458 14.5202 11.8663L14.6118 12.6005C15.1444 11.7697 15.4859 10.8311 15.6118 9.85239C15.7377 8.87366 15.6449 7.87919 15.34 6.94069C15.035 6.00219 14.5257 5.14305 13.8485 4.42522C13.1714 3.70739 12.3435 3.14877 11.4243 2.78964ZM11.1868 10.8188L10.2468 11.5705L10.9502 12.273C11.207 12.5301 11.4046 12.84 11.5293 13.1813L11.586 13.3546L12.0385 14.9363C12.3302 14.7863 12.6102 14.6155 12.8752 14.4263L13.136 14.2296L12.8668 12.073C12.852 11.9542 12.8117 11.84 12.7487 11.7382C12.6857 11.6364 12.6015 11.5493 12.5018 11.483L12.4118 11.4313L11.1868 10.8188ZM8.99935 2.33464C7.65953 2.33254 6.35046 2.73607 5.24435 3.49214C5.24768 3.52214 5.24935 3.55297 5.24935 3.58464V6.51797C5.24919 6.69647 5.30635 6.87031 5.41242 7.01388C5.51849 7.15745 5.66785 7.26317 5.83852 7.31547L6.91435 7.6438L6.76852 6.77047C6.6637 6.1418 6.80296 5.49683 7.15782 4.96741C7.51268 4.43799 8.05634 4.06409 8.67768 3.92214L9.01185 3.8463C9.16863 3.81047 9.3117 3.73003 9.42378 3.61469C9.53586 3.49935 9.61218 3.35405 9.64352 3.1963L9.80685 2.38297C9.53889 2.35069 9.26924 2.33455 8.99935 2.33464Z" fill="#52786A"/>
</svg>
