<svg width="140" height="35" viewBox="0 0 140 35" fill="none" xmlns="http://www.w3.org/2000/svg">
<rect y="2" width="31" height="31" rx="15.5" fill="#52786A"/>
<rect x="36" y="2" width="7" height="31" rx="3.5" fill="#52786A"/>
<path d="M58.1524 8.5H61.5274V14.825H68.8274V8.5H72.2024V25H68.8274V17.875H61.5274V25H58.1524V8.5ZM76.2247 8.5H87.3247V11.55H79.5997V14.9H85.2747V17.775H79.5997V21.95H87.6247V25H76.2247V8.5ZM104.856 8.5V25.3H103.731L94.1808 15.1V25H90.8058V8.2H91.9058L101.481 18.35V8.5H104.856ZM118.603 22.85H111.853L110.928 25H107.303L114.678 8.2H115.803L123.153 25H119.528L118.603 22.85ZM115.228 14.5L113.028 20.075H117.428L115.228 14.5ZM135.781 25L131.506 19.175H129.031V25H125.656V8.5H131.856C133.006 8.5 134.031 8.725 134.931 9.175C135.831 9.60833 136.531 10.2333 137.031 11.05C137.548 11.85 137.806 12.775 137.806 13.825C137.806 14.875 137.548 15.8083 137.031 16.625C136.515 17.4417 135.806 18.075 134.906 18.525L139.581 25H135.781ZM129.031 16.2H131.856C132.64 16.2 133.248 15.9833 133.681 15.55C134.131 15.1167 134.356 14.5417 134.356 13.825C134.356 13.125 134.131 12.5583 133.681 12.125C133.231 11.6917 132.623 11.475 131.856 11.475H129.031V16.2Z" fill="#1F283A"/>
</svg>
