<svg width="119" height="46" viewBox="0 0 119 46" fill="none" xmlns="http://www.w3.org/2000/svg">
<g clip-path="url(#clip0_1086_8278)">
<mask id="mask0_1086_8278" style="mask-type:luminance" maskUnits="userSpaceOnUse" x="0" y="0" width="119" height="46">
<path d="M118.067 0H0V46H118.067V0Z" fill="white"/>
</mask>
<g mask="url(#mask0_1086_8278)">
<path d="M118.067 23.0008C118.066 27.9808 116.476 32.8261 113.536 36.8086C110.596 40.791 106.464 43.6956 101.762 45.0857C97.0604 46.4758 92.0418 46.2765 87.4602 44.5176C82.8793 42.7587 78.9831 39.5353 76.3573 35.3318H80.0442C82.6286 38.6704 86.1952 41.082 90.2217 42.2145C94.249 43.3471 98.5262 43.1416 102.431 41.6277C106.335 40.1139 109.661 37.3712 111.925 33.7994C114.188 30.2277 115.27 26.0138 115.013 21.7726C114.757 17.5313 113.174 13.4844 110.497 10.2222C107.819 6.95997 104.187 4.65309 100.13 3.63803C96.0729 2.62297 91.8026 2.95282 87.9424 4.57947C84.083 6.20612 80.8346 9.04444 78.6726 12.6805H75.2344C77.5196 8.05291 81.2732 4.34468 85.8877 2.15591C90.5023 -0.0328553 95.708 -0.574146 100.662 0.619621C105.617 1.81339 110.031 4.67237 113.189 8.73402C116.347 12.7957 118.066 17.8223 118.067 23.0008Z" fill="#3A5497"/>
<path d="M42.3373 27.5126V18.0151H38.9316V30.2584H48.0806V27.5126H42.3373ZM47.1684 18.0152V20.761H50.8667V30.2584H54.2709V20.761H57.9523V18.0151L47.1684 18.0152Z" fill="#53786A"/>
<path d="M70.6749 18.0151V30.2584H67.2693V25.4831H62.6249V30.2584H59.2207V18.0151H62.6249V22.6151H67.2693V18.0151H70.6749Z" fill="#53786A"/>
<path d="M32.6349 18.0151H29.2816L23.9668 30.2584H27.4403L28.3793 27.8794H33.4848L34.4239 30.2584H37.9667L32.6349 18.0151ZM29.3863 25.3263L30.932 21.4097L32.4779 25.3263H29.3863Z" fill="#53786A"/>
<path d="M23.5206 27.5831V30.2584H13.8555V18.0151H23.2971V20.6905H17.227V22.7545H22.5758V25.3436H17.227V27.5831H23.5206Z" fill="#53786A"/>
<path d="M11.4542 18.0151V30.2584H8.04862V25.4831H3.40558V30.2584H0V18.0151H3.40558V22.6151H8.04862V18.0151H11.4542Z" fill="#53786A"/>
<path d="M97.3516 18.0151V20.761H101.049V30.2584H104.455V20.761H108.135V18.0151H97.3516Z" fill="#3A5497"/>
<path d="M96.5962 27.5831V30.2584H86.9316V18.0151H96.3731V20.6905H90.3019V22.7545H95.6502V25.3436H90.3019V27.5831H96.5962Z" fill="#3A5497"/>
<path d="M84.5287 18.0151V30.2584H81.7258L76.4125 23.7341V30.2584H73.0762V18.0151H75.8793L81.1929 24.5395V18.0151H84.5287Z" fill="#3A5497"/>
</g>
</g>
<defs>
<clipPath id="clip0_1086_8278">
<rect width="118.067" height="46" fill="white"/>
</clipPath>
</defs>
</svg>
