<svg width="20" height="21" viewBox="0 0 20 21" fill="none" xmlns="http://www.w3.org/2000/svg">
<path d="M13.6423 11.1587C13.5405 11.1182 13.4318 11.0982 13.3223 11.0997C13.2127 11.1013 13.1046 11.1244 13.004 11.1677C12.9034 11.211 12.8123 11.2738 12.736 11.3523C12.6596 11.4308 12.5995 11.5236 12.559 11.6254C12.5185 11.7272 12.4984 11.8359 12.5 11.9455C12.5015 12.055 12.5246 12.1631 12.568 12.2637C12.6113 12.3643 12.674 12.4554 12.7525 12.5317C12.8311 12.6081 12.9239 12.6682 13.0257 12.7087C14.2423 13.1921 15.0007 13.9421 15.0007 14.6671C15.0007 15.8504 12.9507 17.1671 10.0007 17.1671C7.05065 17.1671 5.00065 15.8504 5.00065 14.6671C5.00065 13.9421 5.75898 13.1921 6.97565 12.7087C7.18119 12.627 7.34583 12.4669 7.43335 12.2637C7.52087 12.0606 7.52409 11.8309 7.44232 11.6254C7.36054 11.4199 7.20047 11.2552 6.9973 11.1677C6.79414 11.0802 6.56453 11.077 6.35898 11.1587C4.46732 11.9087 3.33398 13.2171 3.33398 14.6671C3.33398 17.0004 6.25898 18.8337 10.0007 18.8337C13.7423 18.8337 16.6673 17.0004 16.6673 14.6671C16.6673 13.2171 15.534 11.9087 13.6423 11.1587ZM9.16732 8.71707V14.6671C9.16732 14.8881 9.25512 15.1 9.4114 15.2563C9.56768 15.4126 9.77964 15.5004 10.0007 15.5004C10.2217 15.5004 10.4336 15.4126 10.5899 15.2563C10.7462 15.1 10.834 14.8881 10.834 14.6671V8.71707C11.6195 8.51424 12.3041 8.03188 12.7595 7.3604C13.2148 6.68891 13.4096 5.87441 13.3074 5.06957C13.2052 4.26472 12.8129 3.52479 12.2042 2.98847C11.5954 2.45214 10.812 2.15625 10.0007 2.15625C9.18934 2.15625 8.40588 2.45214 7.79712 2.98847C7.18837 3.52479 6.79611 4.26472 6.69389 5.06957C6.59166 5.87441 6.78647 6.68891 7.24182 7.3604C7.69716 8.03188 8.38177 8.51424 9.16732 8.71707ZM10.0007 3.83374C10.3303 3.83374 10.6525 3.93148 10.9266 4.11462C11.2007 4.29776 11.4143 4.55805 11.5405 4.8626C11.6666 5.16714 11.6996 5.50225 11.6353 5.82555C11.571 6.14886 11.4122 6.44583 11.1792 6.67891C10.9461 6.912 10.6491 7.07074 10.3258 7.13505C10.0025 7.19935 9.66739 7.16635 9.36285 7.0402C9.0583 6.91406 8.798 6.70044 8.61487 6.42635C8.43173 6.15227 8.33398 5.83004 8.33398 5.5004C8.33398 5.05838 8.50958 4.63445 8.82214 4.32189C9.1347 4.00933 9.55862 3.83374 10.0007 3.83374Z" fill="#52786A"/>
</svg>
