<svg width="20" height="20" viewBox="0 0 20 20" fill="none" xmlns="http://www.w3.org/2000/svg">
<path d="M16.6667 17.5044H12.3464C12.403 17.3446 12.4429 17.1793 12.4656 17.0113C13.6992 16.515 14.7573 15.663 15.5054 14.5637C16.2535 13.4644 16.6577 12.1674 16.6667 10.8377C16.6691 9.16138 16.0355 7.54649 14.8938 6.31901L15.4248 5.7877C15.5164 5.69641 15.5852 5.58492 15.6258 5.46218L16.2158 3.69379C16.2648 3.54699 16.272 3.38944 16.2365 3.23879C16.201 3.08815 16.1242 2.95038 16.0148 2.84092L14.2464 1.07294C14.1371 0.963372 13.9993 0.886477 13.8486 0.850896C13.698 0.815315 13.5404 0.822458 13.3936 0.871523L11.626 1.46112C11.5033 1.502 11.3918 1.57097 11.3005 1.66254L5.99853 6.96486C5.92113 7.04221 5.85973 7.13405 5.81784 7.23514C5.77594 7.33622 5.75438 7.44457 5.75437 7.554C5.75437 7.66342 5.77592 7.77177 5.81781 7.87286C5.85969 7.97395 5.92109 8.06579 5.99848 8.14315L4.81852 9.32286C4.74113 9.40022 4.67973 9.49207 4.63784 9.59316C4.59594 9.69426 4.57438 9.80262 4.57438 9.91205C4.57438 10.0215 4.59594 10.1298 4.63784 10.2309C4.67973 10.332 4.74113 10.4239 4.81852 10.5012L6.58692 12.2688C6.66428 12.3462 6.75613 12.4076 6.85722 12.4495C6.95832 12.4914 7.06668 12.513 7.17611 12.513C7.28554 12.513 7.3939 12.4914 7.49499 12.4495C7.59609 12.4076 7.68794 12.3462 7.7653 12.2688L8.94368 11.0904L8.94535 11.0921C9.02271 11.1695 9.11456 11.2309 9.21566 11.2728C9.31675 11.3147 9.42511 11.3362 9.53454 11.3362C9.64397 11.3362 9.75233 11.3147 9.85343 11.2728C9.95452 11.2309 10.0464 11.1695 10.1237 11.0921L13.7149 7.4987C14.5435 8.41323 15.0017 9.60367 15 10.8377C14.9948 11.7866 14.7219 12.7148 14.2125 13.5154C13.7032 14.316 12.9782 14.9566 12.121 15.3635C11.8971 14.995 11.581 14.6913 11.204 14.4822C10.8269 14.2731 10.4019 14.166 9.97075 14.1713C9.53964 14.1766 9.11736 14.2942 8.74555 14.5124C8.37374 14.7307 8.06525 15.0421 7.85049 15.416C7.52618 15.2907 7.21404 15.136 6.91799 14.9537C7.0857 14.9022 7.23259 14.7986 7.33727 14.6578C7.44195 14.517 7.49897 14.3465 7.5 14.1711C7.50003 14.0616 7.47849 13.9533 7.43662 13.8521C7.39476 13.751 7.33337 13.6592 7.25599 13.5818C7.1786 13.5044 7.08672 13.443 6.9856 13.4011C6.88449 13.3593 6.77611 13.3377 6.66667 13.3377H3.33333C3.11232 13.3377 2.90036 13.4255 2.74408 13.5818C2.5878 13.7381 2.5 13.9501 2.5 14.1711C2.5 14.3921 2.5878 14.6041 2.74408 14.7603C2.90036 14.9166 3.11232 15.0044 3.33333 15.0044H4.44285C5.28127 15.9456 6.34779 16.6552 7.53982 17.0649C7.56414 17.2146 7.60223 17.3618 7.65361 17.5044H3.33333C3.11232 17.5044 2.90036 17.5922 2.74408 17.7485C2.5878 17.9048 2.5 18.1168 2.5 18.3378C2.5 18.5588 2.5878 18.7707 2.74408 18.927C2.90036 19.0833 3.11232 19.1711 3.33333 19.1711H16.6667C16.8877 19.1711 17.0996 19.0833 17.2559 18.927C17.4122 18.7707 17.5 18.5588 17.5 18.3378C17.5 18.1168 17.4122 17.9048 17.2559 17.7485C17.0996 17.5922 16.8877 17.5044 16.6667 17.5044V17.5044ZM7.17611 10.5012L6.58611 9.91207L7.17611 9.32247L7.76527 9.91207L7.17611 10.5012ZM14.1073 4.74847L9.53451 9.32411L7.76612 7.55411L12.3397 2.98013L13.4326 2.61555L14.4718 3.65518L14.1073 4.74847ZM10 17.5044C9.83518 17.5044 9.67407 17.4555 9.53702 17.364C9.39998 17.2724 9.29317 17.1423 9.2301 16.99C9.16703 16.8377 9.15052 16.6702 9.18268 16.5085C9.21483 16.3469 9.2942 16.1984 9.41074 16.0818C9.52729 15.9653 9.67577 15.8859 9.83742 15.8538C9.99908 15.8216 10.1666 15.8381 10.3189 15.9012C10.4712 15.9643 10.6013 16.0711 10.6929 16.2081C10.7845 16.3451 10.8333 16.5063 10.8333 16.6711C10.8331 16.892 10.7452 17.1039 10.589 17.2601C10.4328 17.4163 10.2209 17.5042 10 17.5044Z" fill="#52786A"/>
</svg>
