<svg width="82" height="18" viewBox="0 0 82 18" fill="none" xmlns="http://www.w3.org/2000/svg">
<path d="M0.152442 0.499999H3.52744V6.825H10.8274V0.499999H14.2024V17H10.8274V9.875H3.52744V17H0.152442V0.499999ZM18.2247 0.499999H29.3247V3.55H21.5997V6.9H27.2747V9.775H21.5997V13.95H29.6247V17H18.2247V0.499999ZM46.8558 0.499999V17.3H45.7308L36.1808 7.1V17H32.8058V0.199999H33.9058L43.4808 10.35V0.499999H46.8558ZM60.603 14.85H53.853L52.928 17H49.303L56.678 0.199999H57.803L65.153 17H61.528L60.603 14.85ZM57.228 6.5L55.028 12.075H59.428L57.228 6.5ZM77.7813 17L73.5063 11.175H71.0313V17H67.6563V0.499999H73.8563C75.0063 0.499999 76.0313 0.724999 76.9313 1.175C77.8313 1.60833 78.5313 2.23333 79.0313 3.05C79.548 3.85 79.8063 4.775 79.8063 5.825C79.8063 6.875 79.548 7.80833 79.0313 8.625C78.5147 9.44167 77.8063 10.075 76.9063 10.525L81.5813 17H77.7813ZM71.0313 8.2H73.8563C74.6397 8.2 75.248 7.98333 75.6813 7.55C76.1313 7.11667 76.3563 6.54167 76.3563 5.825C76.3563 5.125 76.1313 4.55833 75.6813 4.125C75.2313 3.69167 74.623 3.475 73.8563 3.475H71.0313V8.2Z" fill="#1F283A"/>
</svg>
