<svg width="276" height="190" viewBox="0 0 276 190" fill="none" xmlns="http://www.w3.org/2000/svg">
<g clip-path="url(#clip0_270_23878)">
<path fill-rule="evenodd" clip-rule="evenodd" d="M140.336 -63.1142C121.633 -61.7727 104.401 -55.2359 90.1356 -44.9695L105.403 -28.7525C114.982 -37.364 127.122 -43.1474 140.528 -44.8011L140.336 -63.1142ZM81.4944 -37.9668C62.396 -20.5864 50.4453 4.23928 50.4453 31.8015C50.4453 51.0611 56.2806 68.9846 66.3124 83.9653L97.041 59.4787C88.7085 48.5056 83.758 34.7878 83.758 19.9053C83.758 3.36179 89.8752 -11.7425 99.9552 -23.2375L81.4944 -37.9668ZM79.2422 99.4535C96.7799 116.468 120.899 126.974 147.521 126.974C169.963 126.974 190.626 119.508 207.067 106.972L183.074 75.0098C173.067 81.3991 161.2 85.0984 148.475 85.0984C131.714 85.0984 116.441 78.6796 104.946 68.149L79.2422 99.4535ZM222.283 92.5137C236.219 76.0372 244.597 54.8785 244.597 31.8015C244.597 7.90658 235.615 -13.9316 220.78 -30.6448L202.192 -16.4674C209.138 -6.07777 213.193 6.43681 213.193 19.9053C213.193 36.857 206.77 52.2975 196.242 63.8923L222.283 92.5137ZM210.927 -40.2672L194.575 -25.8506C183.311 -37.3652 167.829 -44.68 150.651 -45.2516L151.549 -63.2905C174.208 -62.384 194.864 -53.8628 210.927 -40.2672Z" fill="#D9C4AC"/>
<path fill-rule="evenodd" clip-rule="evenodd" d="M139.349 -63.8195C120.772 -62.79 103.329 -56.5968 88.8873 -46.2858L105.391 -28.7556C114.966 -37.3623 127.098 -43.1437 140.496 -44.8002L139.349 -63.8195ZM80.0491 -39.113C65.1672 -25.4225 54.6945 -6.68475 51.3881 15.5568C47.701 40.3585 53.5593 64.3345 66.1595 83.6229L95.9446 58.0098C88.2676 47.2921 83.7441 34.1302 83.7441 19.904C83.7441 3.35966 89.8618 -11.7453 99.9427 -23.2404L80.0491 -39.113ZM79.3591 99.7252L106.247 69.3196C115.285 77.1619 126.498 82.5308 138.851 84.3832C132.546 88.6302 137.844 97.7421 142.872 106.389C149.782 118.273 156.182 129.278 131.252 125.572C110.927 122.551 93.0842 113.183 79.3591 99.7252Z" fill="#52786A"/>
<path d="M147.52 153.836C147.52 155.316 146.32 156.519 144.841 156.487C143.36 156.456 142.212 155.202 142.276 153.723L142.851 140.398C142.906 139.137 143.971 138.161 145.233 138.188C146.496 138.214 147.52 139.236 147.52 140.499V153.836Z" fill="#52786A"/>
<path d="M147.52 153.836C147.52 155.316 146.32 156.519 144.841 156.487C143.36 156.456 142.212 155.202 142.276 153.723L142.851 140.398C142.906 139.137 143.971 138.161 145.233 138.188C146.496 138.214 147.52 139.236 147.52 140.499V153.836Z" fill="#52786A"/>
<path d="M240.618 110.681C241.677 111.573 241.815 113.157 240.902 114.198C239.989 115.24 238.4 115.312 237.377 114.377L227.293 105.168C226.42 104.372 226.36 103.021 227.138 102.132C227.917 101.244 229.265 101.126 230.169 101.887L240.618 110.681Z" fill="#52786A"/>
<path d="M65.4974 122.213C64.564 123.236 62.9763 123.31 61.972 122.357C60.9671 121.403 60.9595 119.812 61.934 118.827L71.5388 109.119C72.3693 108.279 73.7216 108.273 74.5781 109.086C75.4352 109.899 75.4987 111.251 74.7022 112.124L65.4974 122.213Z" fill="#52786A"/>
<path d="M269.93 29.3629C270.901 29.3395 271.707 30.1081 271.716 31.0788C271.724 32.0474 270.934 32.8289 269.965 32.8249L254.914 32.7623C254.086 32.7588 253.419 32.0844 253.412 31.2567C253.405 30.4306 254.058 29.7457 254.883 29.7258L269.93 29.3629Z" fill="#52786A"/>
<path d="M25.083 30.9358C24.1131 30.9249 23.3346 30.1293 23.3596 29.1597C23.3846 28.1905 24.2023 27.4363 25.171 27.4746L40.2098 28.0696C41.0363 28.1023 41.6788 28.7988 41.6575 29.6258C41.6362 30.4523 40.9593 31.1146 40.1326 31.1053L25.083 30.9358Z" fill="#52786A"/>
<path d="M150.065 30.3863C149.388 28.9 149.934 27.1425 151.334 26.3015C152.72 25.4693 154.507 25.7957 155.509 27.0638L166.733 41.2702C167.982 42.8512 169.026 44.5846 169.838 46.4286L177.264 63.287C177.914 64.7641 177.365 66.4946 175.981 67.3257C174.581 68.1667 172.773 67.8204 171.783 66.5218L160.324 51.493C159.252 50.0877 158.342 48.5667 157.61 46.9584L150.065 30.3863Z" fill="#52786A"/>
<path d="M154.255 7.42305C153.541 8.30876 153.669 9.60367 154.543 10.3321C155.292 10.9557 156.372 10.9777 157.145 10.385L168.241 1.8779C169.475 0.931862 170.592 -0.157846 171.568 -1.36817L180.924 -12.9688C181.547 -13.7416 181.538 -14.8469 180.902 -15.6096C180.185 -16.4709 178.914 -16.6095 178.027 -15.9232L166.459 -6.9672C165.399 -6.14685 164.439 -5.20554 163.598 -4.16239L154.255 7.42305Z" fill="#52786A"/>
<circle cx="147.516" cy="17.5643" r="4.75862" fill="#52786A"/>
<circle cx="125.625" cy="-7.18019" r="14.2759" fill="#F7F3EE"/>
<circle cx="135.618" cy="60.8674" r="6.18621" fill="#D9C4AC"/>
<ellipse cx="187.489" cy="16.1367" rx="3.8069" ry="3.33103" fill="#F7F3EE"/>
<ellipse cx="107.545" cy="10.4262" rx="3.8069" ry="3.33103" fill="#F7F3EE"/>
<circle cx="147.005" cy="161.71" r="27.3693" transform="rotate(10.346 147.005 161.71)" fill="#52786A"/>
<circle cx="131.961" cy="166.104" r="3.60122" transform="rotate(-34.654 131.961 166.104)" fill="white"/>
<circle cx="156.846" cy="148.903" r="3.60122" transform="rotate(-34.654 156.846 148.903)" fill="white"/>
<path d="M142.9 165.547C142.267 165.984 142.101 166.864 142.651 167.4C143.669 168.393 144.967 169.069 146.386 169.328C148.265 169.671 150.203 169.254 151.774 168.168C153.346 167.082 154.421 165.416 154.764 163.536C155.023 162.118 154.849 160.665 154.28 159.362C153.973 158.657 153.091 158.502 152.458 158.939C151.826 159.376 151.693 160.244 151.913 160.981C152.11 161.642 152.151 162.346 152.025 163.036C151.815 164.189 151.155 165.211 150.191 165.877C149.227 166.543 148.038 166.799 146.886 166.589C146.195 166.463 145.551 166.175 145.003 165.758C144.391 165.292 143.532 165.109 142.9 165.547Z" fill="white"/>
</g>
<defs>
<clipPath id="clip0_270_23878">
<rect width="276" height="277.903" fill="white" transform="translate(0 -88)"/>
</clipPath>
</defs>
</svg>
