<svg width="466" height="235" viewBox="0 0 466 235" fill="none" xmlns="http://www.w3.org/2000/svg">
<g clip-path="url(#clip0_270_23802)">
<circle cx="435.47" cy="89.8562" r="30.531" fill="#52786A"/>
<g clip-path="url(#clip1_270_23802)">
<path d="M439.619 76.6675V80.4839M444.708 85.5724H445.98C447.329 85.5724 448.624 86.1085 449.578 87.0628C450.532 88.017 451.068 89.3113 451.068 90.6609C451.068 92.0104 450.532 93.3047 449.578 94.259C448.624 95.2133 447.329 95.7494 445.98 95.7494H444.708V85.5724ZM424.354 85.5724H444.708V97.0215C444.708 98.3711 444.171 99.6653 443.217 100.62C442.263 101.574 440.969 102.11 439.619 102.11H429.442C428.092 102.11 426.798 101.574 425.844 100.62C424.89 99.6653 424.354 98.3711 424.354 97.0215V85.5724ZM429.442 76.6675V80.4839V76.6675ZM434.531 76.6675V80.4839V76.6675Z" stroke="white" stroke-width="2.90772" stroke-linecap="round" stroke-linejoin="round"/>
</g>
<path fill-rule="evenodd" clip-rule="evenodd" d="M236.938 42.0174C205.36 44.2831 176.267 55.3199 152.182 72.6534L177.958 100.033C194.132 85.494 214.627 75.7295 237.262 72.9371L236.938 42.0174ZM137.593 84.4767C105.347 113.822 85.1699 155.737 85.1699 202.273C85.1699 234.791 95.0219 265.052 111.959 290.346L163.84 249.003C149.771 230.476 141.413 207.315 141.413 182.188C141.413 154.255 151.741 128.753 168.761 109.345L137.593 84.4767ZM133.789 316.496C163.4 345.224 204.124 362.963 249.073 362.963C286.964 362.963 321.852 350.357 349.612 329.191L309.101 275.225C292.204 286.013 272.167 292.26 250.682 292.26C222.382 292.26 196.595 281.422 177.187 263.642L133.789 316.496ZM375.302 304.779C398.832 276.96 412.977 241.236 412.977 202.273C412.977 161.928 397.811 125.055 372.762 96.836L341.376 120.774C353.105 138.316 359.951 159.447 359.951 182.188C359.951 210.808 349.108 236.877 331.334 256.453L375.302 304.779ZM356.125 80.5897L328.515 104.931C309.498 85.4907 283.356 73.1409 254.354 72.1761L255.869 41.7192C294.127 43.249 329.004 57.6355 356.125 80.5897Z" fill="#D9C4AC"/>
<path fill-rule="evenodd" clip-rule="evenodd" d="M235.287 40.8271C203.922 42.5652 174.47 53.0218 150.087 70.4307L177.953 100.03C194.119 85.4982 214.602 75.7364 237.224 72.9389L235.287 40.8271ZM135.165 82.5413C110.038 105.656 92.3553 137.294 86.7727 174.847C80.5474 216.722 90.4388 257.204 111.713 289.77L162.005 246.523C149.044 228.427 141.407 206.205 141.407 182.185C141.407 154.253 151.735 128.75 168.755 109.342L135.165 82.5413ZM134 316.958L179.399 265.618C194.659 278.859 213.592 287.924 234.448 291.052C223.799 298.223 232.746 313.608 241.235 328.209C252.902 348.273 263.707 366.854 221.615 360.597C187.3 355.496 157.173 339.68 134 316.958Z" fill="#52786A"/>
<path d="M378.709 40.9731C379.428 40.0749 380.739 39.9279 381.63 40.6547C382.521 41.3817 382.641 42.696 381.905 43.5801L368.61 59.5507C367.96 60.3306 366.803 60.436 366.016 59.7947C365.23 59.1533 365.1 57.9975 365.734 57.2047L378.709 40.9731Z" fill="#52786A"/>
<path d="M103.693 54.9169C102.888 54.0959 102.9 52.7767 103.729 51.9795C104.558 51.182 105.877 51.2214 106.666 52.0586L120.919 67.1807C121.615 67.9191 121.58 69.0812 120.849 69.7846C120.118 70.4882 118.955 70.4776 118.244 69.7529L103.693 54.9169Z" fill="#52786A"/>
<path d="M455.754 198.156C457.393 198.116 458.754 199.414 458.768 201.053C458.782 202.688 457.448 204.008 455.812 204.001L430.4 203.895C429.002 203.889 427.876 202.751 427.864 201.353C427.852 199.958 428.954 198.802 430.349 198.768L455.754 198.156Z" fill="#52786A"/>
<path d="M42.3492 200.812C40.7116 200.794 39.3971 199.451 39.4394 197.813C39.4815 196.177 40.8621 194.904 42.4977 194.968L67.8892 195.973C69.2848 196.028 70.3695 197.204 70.3335 198.6C70.2976 199.996 69.1548 201.114 67.759 201.099L42.3492 200.812Z" fill="#52786A"/>
<path d="M244.245 2.92021C244.245 2.12318 244.891 1.47651 245.688 1.48189C246.485 1.48726 247.123 2.1428 247.112 2.93995L246.817 24.3457C246.808 25.051 246.228 25.6145 245.523 25.6098C244.817 25.605 244.245 25.0335 244.245 24.328L244.245 2.92021Z" fill="#52786A"/>
<path d="M253.366 199.884C252.224 197.375 253.146 194.407 255.51 192.987C257.849 191.582 260.867 192.133 262.559 194.274L281.51 218.26C283.619 220.93 285.38 223.857 286.751 226.97L299.289 255.434C300.388 257.928 299.46 260.849 297.124 262.253C294.76 263.673 291.707 263.088 290.035 260.895L270.687 235.521C268.878 233.148 267.341 230.58 266.105 227.865L253.366 199.884Z" fill="#52786A"/>
<path d="M260.445 161.113C259.239 162.608 259.455 164.795 260.931 166.024C262.195 167.077 264.019 167.114 265.324 166.114L284.059 151.75C286.142 150.153 288.028 148.313 289.676 146.27L305.472 126.683C306.524 125.378 306.509 123.512 305.436 122.224C304.224 120.77 302.079 120.536 300.582 121.695L281.05 136.816C279.261 138.201 277.64 139.791 276.219 141.552L260.445 161.113Z" fill="#52786A"/>
<circle cx="249.068" cy="178.235" r="8.03448" fill="#52786A"/>
<circle cx="212.107" cy="136.457" r="24.1034" fill="#F7F3EE"/>
<ellipse cx="316.556" cy="175.825" rx="6.42759" ry="5.62414" fill="#F7F3EE"/>
<ellipse cx="181.582" cy="166.184" rx="6.42759" ry="5.62414" fill="#F7F3EE"/>
<circle cx="40.9759" cy="103.515" r="40.9759" fill="#52786A"/>
<path d="M25.1733 115.833V95.2117H55.1687V101.379C56.5185 101.792 57.7933 102.392 58.9181 103.198V95.2117C58.9181 93.1307 57.2496 91.4622 55.1687 91.4622H47.6698V87.7128C47.6698 85.6319 46.0013 83.9634 43.9204 83.9634H36.4215C34.3406 83.9634 32.6721 85.6319 32.6721 87.7128V91.4622H25.1733C23.0923 91.4622 21.4426 93.1307 21.4426 95.2117L21.4238 115.833C21.4238 117.914 23.0923 119.583 25.1733 119.583H39.571C39.0086 118.421 38.6337 117.165 38.4462 115.833H25.1733ZM36.4215 87.7128H43.9204V91.4622H36.4215V87.7128Z" fill="white"/>
<path d="M51.4204 104.586C46.2462 104.586 42.0469 108.786 42.0469 113.96C42.0469 119.134 46.2462 123.334 51.4204 123.334C56.5946 123.334 60.794 119.134 60.794 113.96C60.794 108.786 56.5946 104.586 51.4204 104.586ZM54.5137 118.366L50.4831 114.335V108.336H52.3578V113.566L55.826 117.035L54.5137 118.366Z" fill="white"/>
</g>
<defs>
<clipPath id="clip0_270_23802">
<rect width="466" height="469.214" fill="white"/>
</clipPath>
<clipPath id="clip1_270_23802">
<rect width="30.531" height="30.531" fill="white" transform="translate(421.812 75.394)"/>
</clipPath>
</defs>
</svg>
