<svg width="18" height="18" viewBox="0 0 18 18" fill="none" xmlns="http://www.w3.org/2000/svg">
<path d="M17.092 15.9085L14.0003 12.8418C15.2004 11.3455 15.7815 9.44625 15.6243 7.53458C15.4671 5.62292 14.5833 3.84415 13.1549 2.56403C11.7264 1.28392 9.86179 0.599756 7.94439 0.652223C6.02699 0.70469 4.20255 1.4898 2.84624 2.84612C1.48992 4.20243 0.704812 6.02686 0.652345 7.94427C0.599878 9.86167 1.28404 11.7263 2.56416 13.1548C3.84427 14.5832 5.62304 15.4669 7.5347 15.6242C9.44637 15.7814 11.3456 15.2002 12.842 14.0002L15.9086 17.0668C15.9861 17.1449 16.0783 17.2069 16.1798 17.2492C16.2814 17.2915 16.3903 17.3133 16.5003 17.3133C16.6103 17.3133 16.7192 17.2915 16.8208 17.2492C16.9223 17.2069 17.0145 17.1449 17.092 17.0668C17.2422 16.9114 17.3261 16.7038 17.3261 16.4877C17.3261 16.2716 17.2422 16.0639 17.092 15.9085ZM8.16695 14.0002C7.01323 14.0002 5.88541 13.658 4.92613 13.0171C3.96684 12.3761 3.21917 11.4651 2.77766 10.3992C2.33614 9.33325 2.22063 8.16036 2.44571 7.0288C2.67079 5.89725 3.22636 4.85785 4.04216 4.04204C4.85797 3.22624 5.89737 2.67066 7.02893 2.44558C8.16048 2.2205 9.33337 2.33602 10.3993 2.77753C11.4652 3.21904 12.3762 3.96672 13.0172 4.926C13.6582 5.88529 14.0003 7.01311 14.0003 8.16683C14.0003 9.71393 13.3857 11.1977 12.2917 12.2916C11.1978 13.3856 9.71405 14.0002 8.16695 14.0002Z" fill="#173B5E" fill-opacity="0.35"/>
</svg>
