<svg width="20" height="21" viewBox="0 0 20 21" fill="none" xmlns="http://www.w3.org/2000/svg">
<path d="M5.24247 12.4083L5.00081 12.6583V6.33333C5.00081 6.11232 4.91301 5.90036 4.75673 5.74408C4.60045 5.5878 4.38849 5.5 4.16747 5.5C3.94646 5.5 3.7345 5.5878 3.57822 5.74408C3.42194 5.90036 3.33414 6.11232 3.33414 6.33333V12.6583L3.09247 12.4083C2.93555 12.2514 2.72272 12.1633 2.50081 12.1633C2.27889 12.1633 2.06606 12.2514 1.90914 12.4083C1.75222 12.5653 1.66406 12.7781 1.66406 13C1.66406 13.2219 1.75222 13.4347 1.90914 13.5917L3.57581 15.2583C3.65506 15.3342 3.74851 15.3937 3.85081 15.4333C3.95056 15.4774 4.05841 15.5002 4.16747 15.5002C4.27653 15.5002 4.38439 15.4774 4.48414 15.4333C4.58643 15.3937 4.67989 15.3342 4.75914 15.2583L6.42581 13.5917C6.5035 13.514 6.56514 13.4217 6.60719 13.3202C6.64924 13.2187 6.67088 13.1099 6.67088 13C6.67088 12.8901 6.64924 12.7813 6.60719 12.6798C6.56514 12.5783 6.5035 12.486 6.42581 12.4083C6.34811 12.3306 6.25587 12.269 6.15435 12.2269C6.05283 12.1849 5.94402 12.1633 5.83414 12.1633C5.72426 12.1633 5.61545 12.1849 5.51393 12.2269C5.41241 12.269 5.32017 12.3306 5.24247 12.4083ZM9.16747 7.16667H17.5008C17.7218 7.16667 17.9338 7.07887 18.0901 6.92259C18.2463 6.76631 18.3341 6.55435 18.3341 6.33333C18.3341 6.11232 18.2463 5.90036 18.0901 5.74408C17.9338 5.5878 17.7218 5.5 17.5008 5.5H9.16747C8.94646 5.5 8.7345 5.5878 8.57822 5.74408C8.42194 5.90036 8.33414 6.11232 8.33414 6.33333C8.33414 6.55435 8.42194 6.76631 8.57822 6.92259C8.7345 7.07887 8.94646 7.16667 9.16747 7.16667ZM17.5008 9.66667H9.16747C8.94646 9.66667 8.7345 9.75446 8.57822 9.91074C8.42194 10.067 8.33414 10.279 8.33414 10.5C8.33414 10.721 8.42194 10.933 8.57822 11.0893C8.7345 11.2455 8.94646 11.3333 9.16747 11.3333H17.5008C17.7218 11.3333 17.9338 11.2455 18.0901 11.0893C18.2463 10.933 18.3341 10.721 18.3341 10.5C18.3341 10.279 18.2463 10.067 18.0901 9.91074C17.9338 9.75446 17.7218 9.66667 17.5008 9.66667ZM17.5008 13.8333H9.16747C8.94646 13.8333 8.7345 13.9211 8.57822 14.0774C8.42194 14.2337 8.33414 14.4457 8.33414 14.6667C8.33414 14.8877 8.42194 15.0996 8.57822 15.2559C8.7345 15.4122 8.94646 15.5 9.16747 15.5H17.5008C17.7218 15.5 17.9338 15.4122 18.0901 15.2559C18.2463 15.0996 18.3341 14.8877 18.3341 14.6667C18.3341 14.4457 18.2463 14.2337 18.0901 14.0774C17.9338 13.9211 17.7218 13.8333 17.5008 13.8333Z" fill="#52786A"/>
</svg>
